<svg width="680" height="170" viewBox="0 0 680 170" fill="none" xmlns="http://www.w3.org/2000/svg">
<g clip-path="url(#clip0_1103_25826)">
<path d="M147.671 -17.3335C144.624 25.8625 180.413 63.1313 221.484 73.7853C262.556 84.4392 306.868 73.9916 347.427 58.7226C387.987 43.4537 427.18 23.3012 469.224 13.5989C511.268 3.89653 558.297 6.13376 591.311 32.3874C637.06 68.7924 645.306 141.589 695.207 172.096C729.495 193.038 775.712 187.375 811.883 167.06C848.054 146.744 875.869 113.98 900.611 80.3764C900.197 80.0575 899.14 79.3675 898.726 79.0486L384.08 -317.341C308.529 -219.232 223.207 -115.424 147.671 -17.3335Z" fill="#ECEDF4"/>
<path d="M421.728 57.1875H336.512C334.861 51.7944 334.715 46.0471 336.091 40.5761C337.467 35.105 340.313 30.1217 344.314 26.1729C348.363 22.334 353.416 19.7411 358.879 18.6997C364.341 17.6584 369.985 18.2119 375.146 20.2951C380.306 22.3784 384.769 25.9045 388.007 30.4581C391.245 35.0117 393.125 40.4031 393.424 45.9972C397.083 43.5077 401.278 41.9315 405.661 41.3988C407.743 41.0689 409.87 41.1847 411.904 41.7387C413.939 42.2928 415.834 43.2727 417.468 44.6144C420.611 47.4442 423.212 53.2162 421.728 57.1875Z" fill="#DADCE9"/>
<path d="M240.368 30.1875H282.486C283.302 26.7304 283.374 23.0462 282.694 19.5391C282.014 16.0321 280.608 12.8376 278.63 10.3063C276.629 7.84549 274.131 6.1834 271.431 5.51586C268.732 4.84832 265.942 5.20315 263.391 6.53855C260.841 7.87395 258.635 10.1343 257.035 13.0533C255.434 15.9722 254.505 19.4283 254.357 23.0142C252.549 21.4184 250.476 20.408 248.309 20.0666C247.28 19.855 246.229 19.9293 245.223 20.2845C244.218 20.6396 243.281 21.2677 242.474 22.1278C240.92 23.9418 239.635 27.6418 240.368 30.1875Z" fill="#DADCE9"/>
<path d="M678.283 78.8921C677.675 82.9266 678.615 87.0829 680.349 90.784C681.354 92.9051 682.628 94.9266 683.271 97.1837C683.914 99.4407 683.818 102.092 682.29 103.875C681.653 104.611 680.819 105.149 679.886 105.426C679.71 105.492 679.528 105.542 679.343 105.576C677.851 105.904 676.293 105.733 674.907 105.09C672.495 103.966 670.754 101.673 669.637 99.2382C667.781 95.1681 667.23 90.3297 664.224 87.029L663.929 86.7243C663.749 86.5472 663.563 86.3677 663.372 86.2025C661.174 84.2527 658.256 83.2549 655.755 81.677C653.173 80.0122 651.021 77.7617 649.473 75.1084C647.925 72.4551 647.025 69.4739 646.845 66.4073C646.832 66.2027 646.825 66.0007 646.821 65.7998C646.81 65.2606 646.819 64.7204 646.86 64.1792C646.989 62.3297 647.387 60.4405 646.877 58.6603C646.147 56.1217 643.795 54.4708 641.792 52.7473C639.753 50.9957 637.991 48.9467 636.563 46.6694C636.383 46.3799 636.208 46.0845 636.042 45.788C633.893 41.9774 632.844 37.6123 633.876 33.2272C634.169 31.9809 634.636 30.7824 635.265 29.6672C635.358 29.4994 635.455 29.3328 635.55 29.1733C637.56 25.9217 640.851 23.4593 644.508 22.017L645.052 21.8036C647.048 21.073 649.147 20.6595 651.271 20.5781C654.44 20.5183 657.581 21.1822 660.455 22.5192C660.637 22.5815 660.8 22.6772 660.978 22.7658C666.528 25.462 670.911 30.5197 670.667 36.9C670.641 37.5391 670.577 38.1761 670.474 38.8075C670.242 40.3621 669.874 41.9181 669.725 43.453C669.592 44.5705 669.654 45.7026 669.907 46.7991C671.02 51.1743 675.681 53.4668 678.904 56.7059C679.061 56.8553 679.2 57.0106 679.353 57.1707C680.19 58.0503 680.872 59.0656 681.37 60.1734C682.646 63.1381 682.123 66.5708 681.151 69.6499C680.178 72.7289 678.76 75.6957 678.283 78.8921Z" fill="#DADCE9"/>
<path d="M669.999 77.0995C669.985 77.125 669.965 77.1469 669.941 77.1636C672.01 82.5658 673.995 87.9997 675.898 93.4651C677.273 97.4347 678.603 101.42 679.888 105.42C680.611 107.667 681.318 109.919 682.009 112.177C682.117 112.525 681.562 112.631 681.453 112.282C681.213 111.489 680.968 110.698 680.718 109.91C680.267 108.461 679.814 107.016 679.346 105.57C677.792 100.719 676.169 95.895 674.478 91.0982C674.161 90.1909 673.83 89.299 673.505 88.4047C673.453 88.4461 673.388 88.4665 673.322 88.4619C671.513 88.3581 669.712 88.1428 667.929 87.817C666.689 87.6007 665.466 87.3343 664.249 87.0142L663.954 86.7095C663.774 86.5324 663.588 86.3529 663.397 86.1876C666.638 87.1251 669.974 87.6987 673.343 87.8978C671.49 82.7531 669.562 77.6385 667.558 72.5539L666.581 70.1187C666.569 70.1826 666.533 70.2398 666.481 70.2794C666.429 70.319 666.365 70.3385 666.3 70.3341C664.232 70.2557 662.17 70.0719 660.12 69.7835C655.6 69.1532 651.163 68.0236 646.891 66.4153C646.877 66.2108 646.87 66.0087 646.867 65.8079C653.102 68.1715 659.679 69.508 666.343 69.7654C666.38 69.7662 666.416 69.7786 666.446 69.8009C664.373 64.6178 662.218 59.4723 659.983 54.3645L659.307 52.8352C659.28 52.8717 659.244 52.9001 659.202 52.9175C659.16 52.9348 659.114 52.9405 659.07 52.9338C656.896 52.7235 654.74 52.4086 652.601 51.989C647.061 50.8917 641.679 49.1082 636.58 46.6796C636.399 46.3902 636.225 46.0948 636.058 45.7982C636.367 45.9596 636.671 46.1077 636.978 46.2523C643.948 49.5467 651.433 51.6165 659.106 52.3711C656.729 46.9992 654.267 41.6685 651.718 36.379C651.387 35.6867 651.047 34.9992 650.711 34.3128C650.681 34.3225 650.649 34.3227 650.619 34.3133C649.095 34.0243 647.578 33.6868 646.067 33.3007C642.386 32.3652 638.781 31.154 635.281 29.6774C635.375 29.5096 635.472 29.343 635.566 29.1835C640.346 31.1866 645.317 32.6986 650.402 33.696C648.488 29.7821 646.528 25.8921 644.521 22.026L645.065 21.8126C647.909 27.3124 650.661 32.8605 653.321 38.4568C653.843 39.5582 654.363 40.6667 654.882 41.7668C655.464 39.9926 656.031 38.205 656.582 36.4198C657.994 31.8132 659.285 27.1799 660.455 22.5197C660.637 22.5821 660.8 22.6777 660.978 22.7664C659.32 29.345 657.427 35.866 655.3 42.3295C655.283 42.379 655.251 42.4223 655.21 42.4543C657.379 47.0866 659.48 51.7599 661.515 56.4741L662.958 59.8477C663.892 57.7702 664.791 55.6529 665.628 53.5219C667.517 48.7094 669.14 43.7961 670.487 38.8046C670.255 40.3592 669.887 41.9151 669.738 43.4501C667.99 49.1465 665.886 54.7275 663.438 60.1598C663.416 60.2119 663.379 60.2562 663.331 60.2869C663.284 60.3177 663.228 60.3335 663.172 60.3323C665.208 65.1509 667.175 69.9981 669.074 74.8738L669.713 76.5104C670.89 74.5757 672.001 72.6107 673.042 70.5937C674.977 66.8521 676.671 62.9905 678.113 59.0325C678.377 58.2599 678.645 57.4766 678.91 56.7005C679.067 56.8499 679.206 57.0052 679.359 57.1653C678.346 60.1269 677.199 63.0412 675.918 65.9083C674.185 69.7605 672.208 73.4985 669.999 77.0995Z" fill="#C8CAD9"/>
<path d="M682.596 123.593L682.587 123.19C682.569 122.966 682.563 122.741 682.572 122.517C682.648 120.545 683.391 118.947 683.188 116.819C673.102 110.9 662.466 104.415 657.292 93.9245C656.093 91.4897 655.207 88.8797 653.604 86.6963C652.001 84.5129 649.426 82.7552 646.738 83.1056C645.581 83.2635 644.501 83.7743 643.645 84.5684C643.451 84.7377 643.269 84.9193 643.099 85.1123C641.978 86.3866 641.252 87.9598 641.01 89.6399C640.556 92.7311 641.46 95.8251 642.342 98.8119C633.883 94.087 627.038 86.9776 623.357 78.0003C622.226 75.2411 621.359 72.3279 619.656 69.8911C617.954 67.4544 615.146 65.4935 612.168 65.8168C611.469 65.8921 610.79 66.0945 610.164 66.414C609.952 66.5127 609.748 66.6275 609.553 66.7575C607.687 68.0107 606.369 69.9295 605.87 72.1219C605.146 75.1991 605.778 78.4338 606.634 81.4818C599.956 75.8284 595.178 68.5308 592.033 60.3619C591.132 58.001 590.391 55.5559 589.117 53.365C587.844 51.1741 585.924 49.2401 583.482 48.5826C582.36 48.3166 581.192 48.3042 580.065 48.5463C578.938 48.7883 577.878 49.2788 576.964 49.982C576.773 50.1209 576.594 50.2662 576.416 50.4183C575.579 51.127 574.882 51.9872 574.363 52.9539C572.661 56.1744 572.927 60.191 574.441 63.4998C568.705 56.3519 561.027 49.914 555.297 42.7591C553.408 40.4073 551.444 37.9967 548.783 36.584C546.121 35.1714 542.541 35.0308 540.315 37.0591C539.805 37.5164 539.384 38.0643 539.074 38.6749C538.958 38.8941 538.857 39.1212 538.773 39.3545C537.821 41.8449 538.317 45.0087 539.184 47.673C541.455 54.4169 545.276 60.5335 550.34 65.531C555.404 70.5284 561.57 74.2672 568.341 76.4465C564.941 77.1091 562.727 80.3076 562.457 83.7781C562.388 84.7096 562.454 85.6462 562.654 86.5586C562.707 86.7995 562.766 87.0336 562.832 87.2743C563.496 89.4805 564.718 91.4779 566.38 93.0729C568.875 95.4849 572.097 97.026 575.39 98.1418C583.019 100.698 591.185 101.208 599.072 99.6212C596.248 100.533 594.788 104.616 594.95 107.579C594.99 108.312 595.126 109.037 595.355 109.735C595.427 109.963 595.507 110.189 595.599 110.403C596.39 112.23 597.637 113.823 599.221 115.029C601.633 116.769 604.367 118.011 607.265 118.68C616.874 121.286 627.021 121.139 636.551 118.256C634.095 120.236 634.01 124.779 635.526 127.886C635.63 128.104 635.75 128.315 635.883 128.517C636.189 129.045 636.577 129.522 637.032 129.93C639.99 132.587 644.259 133.169 648.232 133.113C660.231 133.001 671.588 128.263 682.596 123.593Z" fill="#DADCE9"/>
<path d="M682.567 123.19C682.549 122.967 682.543 122.742 682.552 122.518C673.851 121.01 665.243 119.007 656.77 116.519C655.335 113.915 653.975 111.273 652.69 108.593C648.992 100.862 645.959 92.8296 643.625 84.5828C643.432 84.752 643.249 84.9337 643.079 85.1266C643.298 85.8885 643.517 86.6504 643.75 87.412C646.787 97.4228 650.849 107.093 655.87 116.27C644.699 112.934 633.786 108.785 623.219 103.855C623.27 103.82 623.305 103.766 623.317 103.706C623.329 103.646 623.318 103.583 623.286 103.531C621.848 100.595 620.494 97.6254 619.224 94.6227C616.987 89.319 615.026 83.9031 613.348 78.3966C612.142 74.4462 611.085 70.4588 610.178 66.4343C609.966 66.533 609.762 66.6478 609.567 66.7778C609.903 68.2232 610.245 69.6617 610.607 71.093C612.038 76.7284 613.765 82.2846 615.779 87.7387C617.767 93.1202 620.028 98.3967 622.554 103.547C622.173 103.368 621.786 103.195 621.398 103.009C610.294 97.727 599.608 91.6059 589.433 84.6987C588.751 84.2434 588.068 83.7678 587.385 83.3058C587.394 83.2795 587.393 83.2509 587.383 83.2251C586.74 80.3741 586.039 77.5334 585.279 74.7029C583.024 66.3047 580.247 58.0553 576.965 50.0026C576.773 50.1415 576.595 50.2869 576.417 50.4389C576.892 51.6165 577.367 52.8008 577.842 53.9919C581.431 63.3587 584.346 72.9701 586.565 82.7526C577.464 76.3852 568.819 69.3889 560.693 61.8151C552.973 54.6045 545.76 46.8681 539.107 38.6612C538.991 38.8803 538.891 39.1074 538.807 39.3407C546.341 48.5675 554.576 57.1984 563.438 65.1565C571.887 72.7441 580.865 79.72 590.304 86.031C588.083 86.5053 585.839 86.8725 583.572 87.1461C576.627 87.9489 569.602 87.7462 562.715 86.5442C562.767 86.7852 562.826 87.0192 562.892 87.2599C563.77 87.4081 564.647 87.5429 565.524 87.6575C573.972 88.776 582.551 88.4147 590.875 86.5898C590.935 86.5817 590.989 86.5517 591.028 86.5056L592.728 87.6441C603.074 94.3972 613.92 100.35 625.172 105.452L625.912 105.778C623.53 106.478 621.119 107.085 618.679 107.598C611.034 109.216 603.227 109.936 595.416 109.741C595.488 109.968 595.567 110.195 595.66 110.408C596.595 110.441 597.53 110.447 598.471 110.439C608.021 110.387 617.515 108.979 626.67 106.259C626.725 106.249 626.774 106.219 626.809 106.175C636.405 110.441 646.269 114.075 656.339 117.053C656.356 117.086 656.379 117.115 656.408 117.138C656.437 117.162 656.47 117.179 656.505 117.189C656.541 117.199 656.578 117.201 656.615 117.196C656.651 117.191 656.686 117.178 656.718 117.159C657.72 117.453 658.748 117.745 659.736 118.026C661.584 118.542 663.43 119.031 665.29 119.5C662.877 120.636 660.418 121.672 657.911 122.608C650.708 125.277 643.211 127.071 635.581 127.952C635.686 128.17 635.805 128.381 635.939 128.583C636.254 128.576 636.569 128.515 636.884 128.474C646.978 127.192 656.803 124.311 665.993 119.942C666.078 119.902 666.144 119.83 666.176 119.742C671.599 121.085 677.063 122.235 682.567 123.19Z" fill="#C8CAD9"/>
</g>
<defs>
<clipPath id="clip0_1103_25826">
<rect width="680" height="170" fill="white"/>
</clipPath>
</defs>
</svg>
