<svg width="19" height="21" viewBox="0 0 19 21" fill="none" xmlns="http://www.w3.org/2000/svg">
<path d="M1 17.7107V3C1 1.89543 1.89543 1 3 1H5.82478C6.09 1 6.34435 1.10536 6.53189 1.29289L8.37736 3.13837H16C17.1046 3.13837 18 4.0338 18 5.13836V17.7107C18 18.8153 17.1046 19.7107 16 19.7107H3C1.89543 19.7107 1 18.8153 1 17.7107Z" fill="#F8DCA8" stroke="#131834" stroke-width="1.6" stroke-linecap="round" stroke-linejoin="round"/>
<path d="M5.43877 15.7542C5.43877 16.196 5.79694 16.5542 6.23877 16.5542C6.6806 16.5542 7.03877 16.196 7.03877 15.7542H5.43877ZM11.4262 15.7542C11.4262 16.196 11.7844 16.5542 12.2262 16.5542C12.668 16.5542 13.0262 16.196 13.0262 15.7542H11.4262ZM7.03877 15.7542V15.3265H5.43877V15.7542H7.03877ZM8.37713 13.9882H10.0878V12.3882H8.37713V13.9882ZM11.4262 15.3265V15.7542H13.0262V15.3265H11.4262ZM10.1432 9.44604C10.1432 9.949 9.73544 10.3567 9.23248 10.3567V11.9567C10.6191 11.9567 11.7432 10.8327 11.7432 9.44604H10.1432ZM9.23248 10.3567C8.72952 10.3567 8.32179 9.94901 8.32179 9.44604H6.72179C6.72179 10.8327 7.84586 11.9567 9.23248 11.9567V10.3567ZM8.32179 9.44604C8.32179 8.94308 8.72952 8.53535 9.23248 8.53535V6.93535C7.84586 6.93535 6.72179 8.05943 6.72179 9.44604H8.32179ZM9.23248 8.53535C9.73544 8.53535 10.1432 8.94308 10.1432 9.44604H11.7432C11.7432 8.05943 10.6191 6.93535 9.23248 6.93535V8.53535ZM10.0878 13.9882C10.827 13.9882 11.4262 14.5874 11.4262 15.3265H13.0262C13.0262 13.7037 11.7106 12.3882 10.0878 12.3882V13.9882ZM7.03877 15.3265C7.03877 14.5874 7.63798 13.9882 8.37713 13.9882V12.3882C6.75432 12.3882 5.43877 13.7037 5.43877 15.3265H7.03877Z" fill="#131834"/>
</svg>
