<svg width="20" height="20" viewBox="0 0 20 20" fill="none" xmlns="http://www.w3.org/2000/svg">
<path d="M3 8L9.29289 1.70711C9.68342 1.31658 10.3166 1.31658 10.7071 1.70711L16.1875 7.1875L17 8V17C17 18.1046 16.1046 19 15 19H10H5C3.89543 19 3 18.1046 3 17V8Z" fill="#F8DCA8"/>
<path d="M3 8V17C3 18.1046 3.89543 19 5 19H10M3 8L9.29289 1.70711C9.68342 1.31658 10.3166 1.31658 10.7071 1.70711L16.1875 7.1875M3 8L1 10M17 8V17C17 18.1046 16.1046 19 15 19H10M17 8L19 10M17 8L16.1875 7.1875M16.1875 7.1875V3.25M10 19V13.375" stroke="#131834" stroke-width="1.6" stroke-linecap="round" stroke-linejoin="round"/>
</svg>
