<svg width="50" height="50" viewBox="0 0 50 50" fill="none" xmlns="http://www.w3.org/2000/svg">
<rect width="50" height="50" rx="4" fill="#E6FFFB"/>
<path d="M28.4495 18.693C28.3803 18.5736 28.2512 18.5 28.1111 18.5H23.4445C23.266 18.5 23.1107 18.619 23.0674 18.7886L21.5119 24.9078C21.4826 25.0216 21.5088 25.1421 21.5825 25.2343C21.6562 25.3269 21.7694 25.3809 21.889 25.3809H23.661L21.5248 30.9853C21.4564 31.1638 21.5335 31.3643 21.7048 31.4547C21.8768 31.545 22.0897 31.4966 22.2034 31.3431L28.4255 22.9387C28.5117 22.8231 28.5239 22.6698 28.4578 22.5419C28.3914 22.4143 28.2573 22.334 28.1111 22.334H26.4648L28.4445 19.0769C28.5167 18.959 28.5186 18.8124 28.4495 18.693Z" stroke="#00A289" stroke-width="1.2" stroke-linejoin="round"/>
</svg>
